<?xml version="1.0" encoding="UTF-8" standalone="no"?>
<svg
   xmlns:dc="http://purl.org/dc/elements/1.1/"
   xmlns:cc="http://creativecommons.org/ns#"
   xmlns:rdf="http://www.w3.org/1999/02/22-rdf-syntax-ns#"
   xmlns:svg="http://www.w3.org/2000/svg"
   xmlns="http://www.w3.org/2000/svg"
   xmlns:sodipodi="http://sodipodi.sourceforge.net/DTD/sodipodi-0.dtd"
   xmlns:inkscape="http://www.inkscape.org/namespaces/inkscape"
   xml:space="preserve"
   enable-background="new 0 0 1000 800"
   viewBox="0 0 884.53998 193.049"
   height="193.049"
   width="884.53998"
   y="0px"
   x="0px"
   id="Ebene_1"
   version="1.1"
   sodipodi:docname="MZX_v1_11_dark.svg"
   inkscape:version="0.92.5 (2060ec1f9f, 2020-04-08)"><sodipodi:namedview
   pagecolor="#ffffff"
   bordercolor="#666666"
   borderopacity="1"
   objecttolerance="10"
   gridtolerance="10"
   guidetolerance="10"
   inkscape:pageopacity="0"
   inkscape:pageshadow="2"
   inkscape:window-width="1920"
   inkscape:window-height="1080"
   id="namedview76"
   showgrid="false"
   fit-margin-top="0"
   fit-margin-left="0"
   fit-margin-right="0"
   fit-margin-bottom="0"
   inkscape:zoom="0.295"
   inkscape:cx="34.375085"
   inkscape:cy="108.184"
   inkscape:window-x="0"
   inkscape:window-y="0"
   inkscape:window-maximized="0"
   inkscape:current-layer="Ebene_1" /><metadata
   id="metadata149"><rdf:RDF><cc:Work
       rdf:about=""><dc:format>image/svg+xml</dc:format><dc:type
         rdf:resource="http://purl.org/dc/dcmitype/StillImage" /><dc:title></dc:title></cc:Work></rdf:RDF></metadata><defs
   id="defs147" />
<g
   style="fill:#ffffff;fill-opacity:1"
   id="g4"
   transform="translate(-63.93,-315.135)">
	<path
   style="fill:#ffffff;fill-opacity:1"
   id="path2"
   d="m 225.952,419.377 h 67.743 v 6.768 h -79.508 v -2.332 l 68.533,-98.656 h -63.085 v -6.843 H 294.8 v 2.03 z"
   inkscape:connector-curvature="0" />
</g>
<g
   style="fill:#ffffff;fill-opacity:1"
   id="g8"
   transform="translate(-63.93,-315.135)">
	<path
   style="fill:#ffffff;fill-opacity:1"
   id="path6"
   d="m 468.764,507.162 h -31.469 c 0,-3.771 -7.252,-17.692 -21.754,-41.766 -14.019,-23.299 -24.413,-39.058 -31.179,-47.276 h -1.595 c -5.801,7.831 -14.793,23.203 -26.975,46.116 -12.762,24.073 -19.143,38.383 -19.143,42.926 h -30.453 c 0,-2.9 10.198,-19.578 30.599,-50.031 C 357,426.967 369.569,409.565 374.5,404.924 v -1.451 c -5.221,-5.896 -15.952,-20.737 -32.194,-44.521 -16.728,-24.556 -25.088,-38.09 -25.088,-40.605 h 31.179 c 0,2.9 5.801,14.117 17.402,33.645 11.406,19.143 19.577,31.614 24.509,37.415 h 1.449 c 4.932,-5.993 12.762,-18.61 23.494,-37.85 10.73,-19.238 16.097,-30.309 16.097,-33.209 h 30.599 c 0,2.708 -8.846,15.76 -26.538,39.155 -17.112,22.431 -28.764,36.788 -34.95,43.071 v 1.451 c 7.347,8.219 20.398,26.588 39.156,55.107 19.432,29.487 29.149,46.165 29.149,50.03 z"
   inkscape:connector-curvature="0" />
</g>
<g
   style="fill:#ffffff;fill-opacity:1"
   id="g22"
   transform="translate(-63.93,-315.135)">
	<path
   style="fill:#ffffff;fill-opacity:1"
   id="path10"
   d="m 89.917,506.706 c -1.68,0.927 -3.896,1.391 -6.648,1.391 -7.794,0 -11.689,-4.346 -11.689,-13.037 v -26.335 h -7.65 v -6.084 h 7.648 v -10.864 l 7.127,-2.304 v 13.168 h 11.211 v 6.084 h -11.21 v 25.074 c 0,2.984 0.506,5.114 1.521,6.389 1.014,1.275 2.694,1.912 5.041,1.912 1.796,0 3.347,-0.492 4.649,-1.478 z"
   inkscape:connector-curvature="0" />
	<path
   style="fill:#ffffff;fill-opacity:1"
   id="path12"
   d="m 134.147,486.672 h -31.419 c 0.115,4.955 1.448,8.779 3.998,11.473 2.549,2.695 6.055,4.042 10.517,4.042 5.012,0 9.618,-1.651 13.819,-4.954 v 6.692 c -3.911,2.84 -9.083,4.259 -15.515,4.259 -6.286,0 -11.227,-2.021 -14.818,-6.063 -3.593,-4.041 -5.389,-9.727 -5.389,-17.057 0,-6.924 1.962,-12.566 5.889,-16.927 3.925,-4.36 8.8,-6.54 14.623,-6.54 5.823,0 10.328,1.884 13.516,5.649 3.187,3.767 4.779,8.995 4.779,15.688 z m -7.301,-6.04 c -0.028,-4.113 -1.021,-7.315 -2.977,-9.604 -1.955,-2.287 -4.672,-3.433 -8.148,-3.433 -3.36,0 -6.214,1.202 -8.561,3.606 -2.347,2.406 -3.796,5.549 -4.346,9.431 z"
   inkscape:connector-curvature="0" />
	<path
   style="fill:#ffffff;fill-opacity:1"
   id="path14"
   d="m 174.902,505.098 c -3.419,2.057 -7.475,3.086 -12.168,3.086 -6.345,0 -11.466,-2.064 -15.362,-6.192 -3.896,-4.129 -5.845,-9.48 -5.845,-16.058 0,-7.329 2.101,-13.218 6.302,-17.665 4.2,-4.447 9.806,-6.671 16.817,-6.671 3.911,0 7.358,0.725 10.343,2.173 v 7.301 c -3.303,-2.317 -6.838,-3.477 -10.604,-3.477 -4.549,0 -8.278,1.63 -11.19,4.889 -2.911,3.26 -4.367,7.54 -4.367,12.842 0,5.215 1.369,9.329 4.106,12.342 2.738,3.014 6.41,4.52 11.017,4.52 3.882,0 7.532,-1.288 10.951,-3.868 z"
   inkscape:connector-curvature="0" />
	<path
   style="fill:#ffffff;fill-opacity:1"
   id="path16"
   d="m 222.261,507.141 h -7.127 v -25.64 c 0,-9.271 -3.448,-13.906 -10.343,-13.906 -3.477,0 -6.403,1.341 -8.778,4.02 -2.376,2.681 -3.563,6.121 -3.563,10.321 v 25.205 h -7.127 V 441.26 h 7.127 v 28.769 h 0.174 c 3.418,-5.62 8.285,-8.431 14.602,-8.431 10.023,0 15.036,6.041 15.036,18.121 v 27.422 z"
   inkscape:connector-curvature="0" />
	<path
   style="fill:#ffffff;fill-opacity:1"
   id="path18"
   d="m 272.272,507.141 h -7.127 v -25.379 c 0,-9.444 -3.448,-14.167 -10.343,-14.167 -3.563,0 -6.512,1.341 -8.844,4.02 -2.332,2.681 -3.498,6.063 -3.498,10.147 v 25.379 h -7.127 v -44.5 h 7.127 v 7.388 h 0.174 c 3.36,-5.62 8.228,-8.431 14.602,-8.431 4.867,0 8.59,1.572 11.169,4.715 2.578,3.145 3.867,7.686 3.867,13.624 z"
   inkscape:connector-curvature="0" />
	<path
   style="fill:#ffffff;fill-opacity:1"
   id="path20"
   d="m 288.995,451.342 c -1.275,0 -2.361,-0.435 -3.26,-1.304 -0.897,-0.869 -1.347,-1.97 -1.347,-3.303 0,-1.332 0.449,-2.44 1.347,-3.324 0.898,-0.884 1.984,-1.325 3.26,-1.325 1.304,0 2.412,0.441 3.324,1.325 0.913,0.884 1.369,1.992 1.369,3.324 0,1.275 -0.456,2.362 -1.369,3.259 -0.912,0.899 -2.021,1.348 -3.324,1.348 z m 3.476,55.799 h -7.127 v -44.5 h 7.127 z"
   inkscape:connector-curvature="0" />
</g>
<g
   style="fill:#ffffff;fill-opacity:1"
   id="g26"
   transform="translate(-63.93,-315.135)">
	<path
   style="fill:#ffffff;fill-opacity:1"
   id="path24"
   d="m 169.921,426.145 v -76.549 c 0,-1.854 0.289,-7.144 0.868,-15.866 h -0.315 c -1.632,4.061 -3,7.194 -4.105,9.399 l -40.268,83.016 h -2.526 L 83.149,343.58 c -1.316,-2.657 -2.554,-6.041 -3.711,-10.151 h -0.395 c 0.367,4.813 0.553,9.6 0.553,14.362 v 78.354 H 71.779 V 318.314 h 7.265 l 42.24,86.85 c 0.263,0.502 0.553,1.179 0.869,2.031 0.315,0.853 0.657,1.704 1.026,2.557 0.525,1.304 1.078,2.757 1.658,4.361 h 0.474 l 0.868,-2.406 c 0.052,-0.2 0.947,-2.582 2.685,-7.145 l 41.609,-86.249 h 6.948 v 107.831 h -7.5 z"
   inkscape:connector-curvature="0" />
</g>
<g
   style="fill:#ffffff;fill-opacity:1"
   id="g34"
   transform="translate(-63.93,-315.135)">
	<path
   style="fill:#ffffff;fill-opacity:1"
   id="path28"
   d="m 262.852,406.77 -1.24,1.771 -1.727,-1.21 -0.031,0.044 c 0.785,1.697 0.654,3.295 -0.395,4.792 -0.771,1.102 -1.666,1.76 -2.686,1.974 -1.02,0.215 -2.012,-0.016 -2.977,-0.691 -2.066,-1.447 -2.416,-3.506 -1.051,-6.176 l 1.857,-3.641 c -1.879,-1.315 -3.351,-1.214 -4.414,0.305 -0.934,1.332 -1.321,2.852 -1.166,4.561 l -1.813,-1.271 c 0.069,-1.57 0.602,-3.065 1.595,-4.483 1.82,-2.599 4.104,-2.936 6.854,-1.01 z m -6.834,-2.147 -1.5,2.925 c -0.46,0.901 -0.689,1.663 -0.69,2.285 -0.001,0.622 0.369,1.192 1.11,1.711 0.541,0.378 1.116,0.494 1.729,0.349 0.611,-0.146 1.141,-0.539 1.59,-1.18 0.615,-0.878 0.814,-1.819 0.601,-2.822 -0.215,-1.004 -0.794,-1.835 -1.737,-2.496 z"
   inkscape:connector-curvature="0" />
	<path
   style="fill:#ffffff;fill-opacity:1"
   id="path30"
   d="m 265.561,399.499 -0.029,0.043 6.684,4.681 -1.24,1.771 -16.145,-11.305 1.24,-1.771 1.943,1.361 0.031,-0.043 c -0.859,-1.9 -0.701,-3.688 0.474,-5.366 0.999,-1.425 2.272,-2.191 3.821,-2.296 1.55,-0.106 3.156,0.423 4.819,1.587 1.851,1.295 3.017,2.783 3.499,4.461 0.481,1.68 0.176,3.3 -0.918,4.862 -1.004,1.433 -2.396,2.104 -4.179,2.015 z m -4.491,-3.08 1.545,1.082 c 0.914,0.64 1.898,0.887 2.951,0.738 1.053,-0.147 1.899,-0.679 2.539,-1.593 0.752,-1.073 0.93,-2.201 0.535,-3.383 -0.395,-1.184 -1.322,-2.287 -2.785,-3.31 -1.23,-0.862 -2.395,-1.253 -3.491,-1.173 -1.097,0.08 -1.985,0.605 -2.665,1.577 -0.722,1.03 -0.942,2.108 -0.666,3.237 0.28,1.127 0.957,2.069 2.037,2.825 z"
   inkscape:connector-curvature="0" />
	<path
   style="fill:#ffffff;fill-opacity:1"
   id="path32"
   d="m 264.424,372.989 c -0.436,0.209 -0.809,0.534 -1.115,0.973 -0.867,1.239 -0.52,2.404 1.043,3.498 l 1.706,1.195 1.815,-2.592 1.512,1.059 -1.814,2.592 9.546,6.685 -1.233,1.761 -9.546,-6.685 -1.323,1.89 -1.513,-1.059 1.323,-1.89 -1.792,-1.255 c -1.159,-0.812 -1.841,-1.788 -2.046,-2.928 -0.203,-1.142 0.045,-2.212 0.745,-3.212 0.378,-0.541 0.743,-0.923 1.095,-1.149 z"
   inkscape:connector-curvature="0" />
</g>
<g
   style="fill:#ffffff;fill-opacity:1"
   id="g48"
   transform="translate(-63.93,-315.135)">
	<path
   style="fill:#ffffff;fill-opacity:1"
   id="path36"
   d="m 119.744,379.538 c -0.157,0.322 -0.4,0.542 -0.73,0.662 -0.33,0.12 -0.663,0.098 -1,-0.066 -0.336,-0.164 -0.561,-0.414 -0.673,-0.75 -0.113,-0.335 -0.091,-0.664 0.066,-0.986 0.161,-0.329 0.408,-0.555 0.744,-0.676 0.335,-0.122 0.672,-0.101 1.008,0.063 0.322,0.157 0.54,0.406 0.653,0.747 0.116,0.342 0.092,0.677 -0.068,1.006 z m 14.516,5.993 -0.878,1.8 -11.234,-5.48 0.878,-1.799 z"
   inkscape:connector-curvature="0" />
	<path
   style="fill:#ffffff;fill-opacity:1"
   id="path38"
   d="m 139.775,372.915 c 0.098,1.116 -0.142,2.267 -0.72,3.451 -0.781,1.603 -1.933,2.641 -3.455,3.117 -1.522,0.475 -3.113,0.308 -4.773,-0.502 -1.851,-0.902 -3.079,-2.157 -3.685,-3.767 -0.605,-1.607 -0.477,-3.296 0.387,-5.067 0.482,-0.987 1.09,-1.769 1.822,-2.343 l 1.844,0.899 c -0.992,0.548 -1.72,1.298 -2.184,2.248 -0.56,1.148 -0.607,2.291 -0.145,3.428 0.465,1.136 1.366,2.031 2.705,2.684 1.316,0.642 2.523,0.803 3.621,0.483 1.099,-0.32 1.932,-1.062 2.498,-2.225 0.479,-0.98 0.603,-2.06 0.372,-3.241 z"
   inkscape:connector-curvature="0" />
	<path
   style="fill:#ffffff;fill-opacity:1"
   id="path40"
   d="m 146.686,360.056 -0.878,1.799 -6.474,-3.157 c -2.34,-1.142 -3.936,-0.842 -4.784,0.899 -0.428,0.878 -0.45,1.781 -0.065,2.711 0.384,0.93 1.105,1.653 2.166,2.17 l 6.363,3.104 -0.877,1.799 -16.633,-8.112 0.877,-1.799 7.264,3.542 0.021,-0.044 c -0.998,-1.555 -1.108,-3.129 -0.33,-4.724 1.234,-2.531 3.376,-3.052 6.426,-1.565 z"
   inkscape:connector-curvature="0" />
	<path
   style="fill:#ffffff;fill-opacity:1"
   id="path42"
   d="m 152.78,347.559 -0.878,1.799 -1.755,-0.856 -0.021,0.044 c 0.964,1.44 1.075,2.92 0.333,4.441 -0.546,1.119 -1.27,1.851 -2.171,2.195 -0.9,0.344 -1.841,0.276 -2.821,-0.202 -2.099,-1.024 -2.718,-2.855 -1.855,-5.496 l 1.171,-3.599 c -1.909,-0.931 -3.24,-0.624 -3.993,0.919 -0.66,1.354 -0.795,2.799 -0.404,4.339 l -1.844,-0.899 c -0.163,-1.446 0.106,-2.891 0.81,-4.332 1.287,-2.64 3.329,-3.28 6.122,-1.917 z m -6.56,-0.973 -0.949,2.892 c -0.289,0.891 -0.39,1.622 -0.301,2.189 0.091,0.569 0.511,1.037 1.265,1.404 0.549,0.268 1.092,0.291 1.63,0.069 0.538,-0.222 0.967,-0.658 1.284,-1.31 0.436,-0.893 0.482,-1.781 0.14,-2.668 -0.341,-0.886 -0.991,-1.563 -1.949,-2.031 z"
   inkscape:connector-curvature="0" />
	<path
   style="fill:#ffffff;fill-opacity:1"
   id="path44"
   d="m 154.189,331.555 -3.869,7.933 c 1.265,0.581 2.395,0.715 3.389,0.403 0.994,-0.312 1.766,-1.031 2.315,-2.158 0.617,-1.266 0.768,-2.632 0.45,-4.099 l 1.689,0.824 c 0.236,1.337 -0.043,2.817 -0.834,4.441 -0.775,1.588 -1.893,2.586 -3.356,2.995 -1.462,0.409 -3.118,0.163 -4.969,-0.74 -1.748,-0.853 -2.932,-2.042 -3.549,-3.571 -0.617,-1.527 -0.567,-3.027 0.149,-4.497 0.716,-1.47 1.748,-2.375 3.091,-2.716 1.343,-0.341 2.859,-0.1 4.55,0.724 z m -2.423,1.099 c -1.043,-0.499 -1.973,-0.644 -2.792,-0.431 -0.818,0.211 -1.441,0.756 -1.87,1.634 -0.414,0.849 -0.461,1.717 -0.144,2.605 0.318,0.889 0.934,1.642 1.846,2.259 z"
   inkscape:connector-curvature="0" />
	<path
   style="fill:#ffffff;fill-opacity:1"
   id="path46"
   d="m 162.08,328.491 -0.877,1.799 -16.633,-8.112 0.877,-1.799 z"
   inkscape:connector-curvature="0" />
</g>
<g
   style="fill:#ffffff;fill-opacity:0.8627451"
   id="g74"
   transform="translate(-63.93,-315.135)">
	<path
   style="fill:#ffffff;fill-opacity:0.8627451"
   id="path50"
   d="m 510.072,377.315 v -58.816 h 27.48 v 3.732 h -23.42 v 23.584 h 21.738 v 3.691 h -21.738 v 24.117 h 24.773 v 3.691 h -28.833 z"
   inkscape:connector-curvature="0" />
	<path
   style="fill:#ffffff;fill-opacity:0.8627451"
   id="path52"
   d="m 565.508,377.315 h -3.445 l -16.242,-42 h 4.225 l 12.51,33.428 c 0.602,1.614 1.025,3.076 1.271,4.389 h 0.164 c 0.355,-1.723 0.752,-3.131 1.189,-4.225 l 12.92,-33.592 h 4.102 z"
   inkscape:connector-curvature="0" />
	<path
   style="fill:#ffffff;fill-opacity:0.8627451"
   id="path54"
   d="m 591.164,356.479 c 0,5.77 1.332,10.281 3.998,13.535 2.666,3.254 6.324,4.881 10.973,4.881 4.703,0 9.297,-1.736 13.781,-5.209 v 4.02 c -4.348,3.09 -9.201,4.635 -14.561,4.635 -5.414,0 -9.789,-1.941 -13.125,-5.824 -3.336,-3.882 -5.004,-9.365 -5.004,-16.447 0,-6.125 1.742,-11.286 5.229,-15.483 3.486,-4.197 8.02,-6.296 13.598,-6.296 5.223,0 9.229,1.832 12.018,5.496 2.789,3.665 4.184,8.668 4.184,15.012 v 1.682 h -31.091 z m 27.152,-3.445 c -0.164,-4.84 -1.326,-8.599 -3.486,-11.279 -2.16,-2.68 -5.141,-4.02 -8.941,-4.02 -3.938,0 -7.199,1.319 -9.783,3.958 -2.584,2.639 -4.176,6.419 -4.777,11.341 z"
   inkscape:connector-curvature="0" />
	<path
   style="fill:#ffffff;fill-opacity:0.8627451"
   id="path56"
   d="M 661.691,377.315 V 352.87 c 0,-10.09 -3.637,-15.135 -10.91,-15.135 -4.047,0 -7.369,1.483 -9.967,4.45 -2.598,2.967 -3.896,6.638 -3.896,11.013 v 24.117 h -3.773 v -42 h 3.773 v 7.629 h 0.164 c 3.063,-5.769 7.848,-8.654 14.355,-8.654 4.539,0 8.012,1.511 10.418,4.532 2.406,3.021 3.609,7.335 3.609,12.94 v 25.553 z"
   inkscape:connector-curvature="0" />
	<path
   style="fill:#ffffff;fill-opacity:0.8627451"
   id="path58"
   d="m 695.184,376.741 c -1.969,0.929 -3.814,1.395 -5.537,1.395 -6.207,0 -9.311,-3.718 -9.311,-11.156 v -28.219 h -7.547 v -3.445 h 7.547 v -10.91 c 0.602,-0.219 1.23,-0.437 1.887,-0.656 0.656,-0.191 1.285,-0.396 1.887,-0.615 v 12.182 h 11.074 v 3.445 H 684.11 v 27.727 c 0,2.898 0.457,4.998 1.373,6.296 0.916,1.299 2.469,1.948 4.656,1.948 1.559,0 3.24,-0.506 5.045,-1.518 z"
   inkscape:connector-curvature="0" />
	<path
   style="fill:#ffffff;fill-opacity:0.8627451"
   id="path60"
   d="m 720.594,376.741 c -1.969,0.929 -3.814,1.395 -5.537,1.395 -6.207,0 -9.311,-3.718 -9.311,-11.156 v -28.219 h -7.547 v -3.445 h 7.547 v -10.91 c 0.602,-0.219 1.23,-0.437 1.887,-0.656 0.656,-0.191 1.285,-0.396 1.887,-0.615 v 12.182 h 11.074 v 3.445 H 709.52 v 27.727 c 0,2.898 0.459,4.998 1.375,6.296 0.916,1.299 2.467,1.948 4.654,1.948 1.559,0 3.24,-0.506 5.045,-1.518 z"
   inkscape:connector-curvature="0" />
	<path
   style="fill:#ffffff;fill-opacity:0.8627451"
   id="path62"
   d="m 730.295,356.479 c 0,5.77 1.334,10.281 4,13.535 2.666,3.254 6.322,4.881 10.971,4.881 4.703,0 9.297,-1.736 13.781,-5.209 v 4.02 c -4.348,3.09 -9.201,4.635 -14.561,4.635 -5.414,0 -9.789,-1.941 -13.125,-5.824 -3.336,-3.882 -5.004,-9.365 -5.004,-16.447 0,-6.125 1.744,-11.286 5.23,-15.483 3.486,-4.197 8.018,-6.296 13.596,-6.296 5.223,0 9.229,1.832 12.018,5.496 2.789,3.665 4.184,8.668 4.184,15.012 v 1.682 h -31.09 z m 27.152,-3.445 c -0.164,-4.84 -1.326,-8.599 -3.486,-11.279 -2.16,-2.68 -5.141,-4.02 -8.941,-4.02 -3.938,0 -7.197,1.319 -9.781,3.958 -2.584,2.639 -4.178,6.419 -4.779,11.341 z"
   inkscape:connector-curvature="0" />
	<path
   style="fill:#ffffff;fill-opacity:0.8627451"
   id="path64"
   d="m 799.471,375.47 c -3.117,1.914 -6.836,2.871 -11.156,2.871 -5.715,0 -10.322,-1.962 -13.822,-5.886 -3.5,-3.923 -5.25,-9.058 -5.25,-15.401 0,-6.671 1.969,-12.134 5.906,-16.386 3.938,-4.251 8.996,-6.378 15.176,-6.378 3.199,0 6.303,0.656 9.311,1.969 v 4.266 c -3.008,-1.859 -6.303,-2.789 -9.885,-2.789 -4.922,0 -8.914,1.771 -11.977,5.312 -3.063,3.542 -4.594,8.128 -4.594,13.761 0,5.441 1.4,9.817 4.203,13.125 2.803,3.309 6.502,4.963 11.096,4.963 4.211,0 7.875,-1.121 10.992,-3.363 z"
   inkscape:connector-curvature="0" />
	<path
   style="fill:#ffffff;fill-opacity:0.8627451"
   id="path66"
   d="m 838.58,377.315 v -25.184 c 0,-4.977 -0.902,-8.62 -2.707,-10.931 -1.805,-2.311 -4.621,-3.466 -8.449,-3.466 -3.609,0 -6.781,1.409 -9.516,4.225 -2.734,2.816 -4.102,6.85 -4.102,12.1 v 23.256 h -3.773 v -62.18 h 3.773 v 27.727 h 0.164 c 3.309,-5.715 8.121,-8.572 14.438,-8.572 4.539,0 7.998,1.463 10.377,4.389 2.379,2.926 3.568,7.123 3.568,12.592 v 26.045 h -3.773 z"
   inkscape:connector-curvature="0" />
	<path
   style="fill:#ffffff;fill-opacity:0.8627451"
   id="path68"
   d="M 884.008,377.315 V 352.87 c 0,-10.09 -3.637,-15.135 -10.91,-15.135 -4.047,0 -7.369,1.483 -9.967,4.45 -2.598,2.967 -3.896,6.638 -3.896,11.013 v 24.117 h -3.773 v -42 h 3.773 v 7.629 h 0.164 c 3.063,-5.769 7.848,-8.654 14.355,-8.654 4.539,0 8.012,1.511 10.418,4.532 2.406,3.021 3.609,7.335 3.609,12.94 v 25.553 z"
   inkscape:connector-curvature="0" />
	<path
   style="fill:#ffffff;fill-opacity:0.8627451"
   id="path70"
   d="m 902.732,324.733 c -0.82,0 -1.545,-0.301 -2.174,-0.902 -0.629,-0.601 -0.943,-1.367 -0.943,-2.297 0,-0.902 0.32,-1.634 0.963,-2.194 0.643,-0.56 1.361,-0.841 2.154,-0.841 0.848,0 1.592,0.273 2.234,0.82 0.643,0.547 0.965,1.286 0.965,2.215 0,0.875 -0.314,1.627 -0.943,2.256 -0.629,0.629 -1.381,0.943 -2.256,0.943 z m -1.845,52.582 v -42 h 3.773 v 42 z"
   inkscape:connector-curvature="0" />
	<path
   style="fill:#ffffff;fill-opacity:0.8627451"
   id="path72"
   d="m 942.621,377.315 -20.098,-20.754 h -0.164 v 20.754 h -3.773 v -62.18 h 3.773 v 40.072 h 0.164 l 19.072,-19.893 h 4.881 l -19.934,20.344 21.533,21.656 h -5.454 z"
   inkscape:connector-curvature="0" />
</g>
<g
   style="fill:#ffffff;fill-opacity:0.76470588"
   id="g102"
   transform="translate(-63.93,-315.135)">
	<path
   style="fill:#ffffff;fill-opacity:0.76470588"
   id="path76"
   d="m 546.424,445.229 v -31.315 c 0,-0.759 0.111,-2.923 0.338,-6.491 h -0.123 c -0.637,1.662 -1.17,2.943 -1.6,3.846 L 529.35,445.23 h -0.984 l -15.75,-33.776 c -0.512,-1.087 -0.994,-2.472 -1.445,-4.153 h -0.154 c 0.145,1.969 0.217,3.928 0.217,5.876 v 32.054 h -3.047 v -44.112 h 2.83 l 16.459,35.53 c 0.102,0.205 0.215,0.481 0.338,0.83 0.123,0.35 0.256,0.697 0.4,1.046 0.203,0.534 0.42,1.128 0.645,1.784 h 0.186 l 0.338,-0.984 c 0.02,-0.082 0.369,-1.057 1.047,-2.922 l 16.211,-35.284 h 2.707 v 44.112 h -2.924 z"
   inkscape:connector-curvature="0" />
	<path
   style="fill:#ffffff;fill-opacity:0.76470588"
   id="path78"
   d="m 565.879,429.602 c 0,4.327 1,7.711 2.998,10.151 2,2.44 4.742,3.661 8.23,3.661 3.525,0 6.971,-1.303 10.336,-3.907 v 3.015 c -3.262,2.318 -6.902,3.477 -10.922,3.477 -4.061,0 -7.342,-1.457 -9.844,-4.369 -2.502,-2.911 -3.752,-7.023 -3.752,-12.335 0,-4.594 1.307,-8.464 3.922,-11.612 2.615,-3.148 6.014,-4.723 10.197,-4.723 3.916,0 6.922,1.375 9.014,4.123 2.092,2.748 3.137,6.501 3.137,11.258 v 1.262 h -23.316 z m 20.363,-2.584 c -0.123,-3.63 -0.994,-6.449 -2.613,-8.459 -1.621,-2.01 -3.857,-3.016 -6.707,-3.016 -2.953,0 -5.398,0.99 -7.336,2.969 -1.939,1.979 -3.133,4.814 -3.584,8.506 z"
   inkscape:connector-curvature="0" />
	<path
   style="fill:#ffffff;fill-opacity:0.76470588"
   id="path80"
   d="m 624.525,445.229 v -5.722 h -0.123 c -1.027,1.989 -2.545,3.568 -4.553,4.737 -2.012,1.169 -4.277,1.754 -6.799,1.754 -3.877,0 -7.041,-1.416 -9.49,-4.246 -2.451,-2.83 -3.676,-6.736 -3.676,-11.72 0,-5.086 1.338,-9.202 4.014,-12.351 2.676,-3.149 6.146,-4.723 10.414,-4.723 4.715,0 8.078,1.938 10.09,5.814 h 0.123 v -20.18 h 2.83 v 46.635 h -2.83 z m 0,-19.165 c 0,-2.934 -0.93,-5.42 -2.785,-7.46 -1.855,-2.04 -4.352,-3.062 -7.49,-3.062 -3.303,0 -6.029,1.268 -8.182,3.8 -2.154,2.532 -3.23,6.014 -3.23,10.443 0,4.349 0.969,7.706 2.906,10.074 1.938,2.369 4.436,3.554 7.49,3.554 3.59,0 6.369,-1.113 8.338,-3.338 1.969,-2.225 2.953,-4.938 2.953,-8.137 z"
   inkscape:connector-curvature="0" />
	<path
   style="fill:#ffffff;fill-opacity:0.76470588"
   id="path82"
   d="m 643.982,405.792 c -0.615,0 -1.16,-0.226 -1.631,-0.677 -0.473,-0.451 -0.707,-1.025 -0.707,-1.723 0,-0.677 0.24,-1.225 0.723,-1.646 0.48,-0.421 1.02,-0.631 1.615,-0.631 0.635,0 1.193,0.205 1.676,0.615 0.48,0.411 0.723,0.964 0.723,1.661 0,0.656 -0.236,1.221 -0.707,1.691 -0.473,0.475 -1.037,0.71 -1.692,0.71 z m -1.384,39.437 v -31.5 h 2.83 v 31.5 z"
   inkscape:connector-curvature="0" />
	<path
   style="fill:#ffffff;fill-opacity:0.76470588"
   id="path84"
   d="m 661.346,429.602 c 0,4.327 1,7.711 2.998,10.151 2,2.44 4.742,3.661 8.23,3.661 3.525,0 6.971,-1.303 10.336,-3.907 v 3.015 c -3.262,2.318 -6.902,3.477 -10.922,3.477 -4.061,0 -7.342,-1.457 -9.844,-4.369 -2.502,-2.911 -3.752,-7.023 -3.752,-12.335 0,-4.594 1.307,-8.464 3.922,-11.612 2.615,-3.148 6.014,-4.723 10.197,-4.723 3.916,0 6.922,1.375 9.014,4.123 2.092,2.748 3.137,6.501 3.137,11.258 v 1.262 h -23.316 z m 20.363,-2.584 c -0.123,-3.63 -0.994,-6.449 -2.613,-8.459 -1.621,-2.01 -3.857,-3.016 -6.707,-3.016 -2.953,0 -5.398,0.99 -7.336,2.969 -1.939,1.979 -3.133,4.814 -3.584,8.506 z"
   inkscape:connector-curvature="0" />
	<path
   style="fill:#ffffff;fill-opacity:0.76470588"
   id="path86"
   d="m 719.037,445.229 v -18.334 c 0,-7.567 -2.727,-11.352 -8.182,-11.352 -3.035,0 -5.527,1.113 -7.475,3.338 -1.949,2.226 -2.924,4.979 -2.924,8.26 v 18.088 h -2.83 v -31.5 h 2.83 v 5.722 h 0.123 c 2.297,-4.327 5.887,-6.491 10.768,-6.491 3.404,0 6.008,1.134 7.813,3.399 1.805,2.267 2.707,5.502 2.707,9.706 v 19.164 z"
   inkscape:connector-curvature="0" />
	<path
   style="fill:#ffffff;fill-opacity:0.76470588"
   id="path88"
   d="m 748.953,444.798 c -1.477,0.696 -2.861,1.046 -4.154,1.046 -4.654,0 -6.982,-2.789 -6.982,-8.367 v -21.164 h -5.66 v -2.584 h 5.66 v -8.183 c 0.451,-0.164 0.924,-0.327 1.416,-0.492 0.492,-0.144 0.963,-0.297 1.414,-0.462 v 9.137 h 8.307 v 2.584 h -8.307 v 20.795 c 0,2.174 0.344,3.748 1.031,4.722 0.686,0.975 1.85,1.462 3.49,1.462 1.17,0 2.432,-0.38 3.785,-1.139 z"
   inkscape:connector-curvature="0" />
	<path
   style="fill:#ffffff;fill-opacity:0.76470588"
   id="path90"
   d="m 761.025,429.602 c 0,4.327 1,7.711 2.998,10.151 2,2.44 4.742,3.661 8.23,3.661 3.525,0 6.971,-1.303 10.336,-3.907 v 3.015 c -3.262,2.318 -6.902,3.477 -10.922,3.477 -4.061,0 -7.342,-1.457 -9.844,-4.369 -2.502,-2.911 -3.752,-7.023 -3.752,-12.335 0,-4.594 1.307,-8.464 3.922,-11.612 2.615,-3.148 6.014,-4.723 10.197,-4.723 3.916,0 6.922,1.375 9.014,4.123 2.092,2.748 3.137,6.501 3.137,11.258 v 1.262 h -23.316 z m 20.364,-2.584 c -0.123,-3.63 -0.994,-6.449 -2.613,-8.459 -1.621,-2.01 -3.857,-3.016 -6.707,-3.016 -2.953,0 -5.398,0.99 -7.336,2.969 -1.939,1.979 -3.133,4.814 -3.584,8.506 z"
   inkscape:connector-curvature="0" />
	<path
   style="fill:#ffffff;fill-opacity:0.76470588"
   id="path92"
   d="m 817.703,443.844 c -2.338,1.436 -5.127,2.154 -8.367,2.154 -4.287,0 -7.742,-1.472 -10.367,-4.415 -2.625,-2.942 -3.938,-6.793 -3.938,-11.551 0,-5.003 1.477,-9.101 4.43,-12.289 2.953,-3.188 6.748,-4.784 11.383,-4.784 2.398,0 4.727,0.492 6.982,1.477 v 3.199 c -2.256,-1.395 -4.727,-2.092 -7.414,-2.092 -3.691,0 -6.686,1.328 -8.982,3.984 -2.296,2.656 -3.445,6.096 -3.445,10.32 0,4.081 1.051,7.363 3.154,9.844 2.102,2.481 4.875,3.723 8.32,3.723 3.158,0 5.906,-0.842 8.244,-2.523 z"
   inkscape:connector-curvature="0" />
	<path
   style="fill:#ffffff;fill-opacity:0.76470588"
   id="path94"
   d="m 851.832,445.229 v -18.888 c 0,-3.732 -0.676,-6.465 -2.029,-8.198 -1.354,-1.732 -3.467,-2.6 -6.338,-2.6 -2.707,0 -5.086,1.057 -7.137,3.169 -2.051,2.112 -3.076,5.138 -3.076,9.075 v 17.441 h -2.83 v -46.635 h 2.83 v 20.795 h 0.123 c 2.482,-4.286 6.092,-6.43 10.828,-6.43 3.404,0 6,1.098 7.783,3.292 1.785,2.194 2.676,5.343 2.676,9.444 v 19.533 h -2.83 z"
   inkscape:connector-curvature="0" />
	<path
   style="fill:#ffffff;fill-opacity:0.76470588"
   id="path96"
   d="m 890.699,445.229 v -18.334 c 0,-7.567 -2.729,-11.352 -8.184,-11.352 -3.035,0 -5.527,1.113 -7.475,3.338 -1.949,2.226 -2.922,4.979 -2.922,8.26 v 18.088 h -2.83 v -31.5 h 2.83 v 5.722 h 0.123 c 2.297,-4.327 5.885,-6.491 10.766,-6.491 3.404,0 6.01,1.134 7.814,3.399 1.805,2.267 2.707,5.502 2.707,9.706 v 19.164 z"
   inkscape:connector-curvature="0" />
	<path
   style="fill:#ffffff;fill-opacity:0.76470588"
   id="path98"
   d="m 909.539,405.792 c -0.615,0 -1.158,-0.226 -1.631,-0.677 -0.471,-0.451 -0.707,-1.025 -0.707,-1.723 0,-0.677 0.24,-1.225 0.723,-1.646 0.483,-0.421 1.02,-0.631 1.615,-0.631 0.635,0 1.195,0.205 1.676,0.615 0.482,0.411 0.725,0.964 0.725,1.661 0,0.656 -0.236,1.221 -0.709,1.691 -0.471,0.475 -1.036,0.71 -1.692,0.71 z m -1.385,39.437 v -31.5 h 2.83 v 31.5 z"
   inkscape:connector-curvature="0" />
	<path
   style="fill:#ffffff;fill-opacity:0.76470588"
   id="path100"
   d="M 944.252,445.229 929.18,429.664 h -0.123 v 15.565 h -2.83 v -46.635 h 2.83 v 30.055 h 0.123 l 14.305,-14.92 h 3.66 l -14.951,15.258 16.15,16.242 z"
   inkscape:connector-curvature="0" />
</g>
<g
   style="fill:#ffffff;fill-opacity:0.68627451"
   id="g142"
   transform="translate(-63.93,-315.135)">
	<path
   style="fill:#ffffff;fill-opacity:0.68627451"
   id="path104"
   d="m 513.422,469.531 v 2.328 h -3.623 v 32.453 h 3.623 v 2.328 h -9.809 v -2.328 h 3.623 v -32.453 h -3.623 v -2.328 z"
   inkscape:connector-curvature="0" />
	<path
   style="fill:#ffffff;fill-opacity:0.68627451"
   id="path106"
   d="m 537.453,506.641 v -15.424 c 0,-6.365 -2.295,-9.549 -6.883,-9.549 -2.555,0 -4.65,0.936 -6.289,2.808 -1.639,1.872 -2.459,4.188 -2.459,6.948 v 15.217 h -2.381 v -26.5 h 2.381 v 4.814 h 0.104 c 1.932,-3.641 4.951,-5.461 9.059,-5.461 2.863,0 5.055,0.953 6.572,2.859 1.517,1.906 2.277,4.629 2.277,8.165 v 16.122 h -2.381 z"
   inkscape:connector-curvature="0" />
	<path
   style="fill:#ffffff;fill-opacity:0.68627451"
   id="path108"
   d="m 560.088,469.919 c -0.639,-0.5 -1.604,-0.751 -2.898,-0.751 -3.26,0 -4.891,2.191 -4.891,6.574 v 4.398 h 7.014 v 2.174 h -7.014 v 24.326 h -2.381 v -24.326 h -4.762 v -2.174 h 4.762 v -4.605 c 0,-2.795 0.703,-4.918 2.109,-6.367 1.406,-1.449 3.16,-2.174 5.266,-2.174 1.121,0 2.053,0.164 2.795,0.492 z"
   inkscape:connector-curvature="0" />
	<path
   style="fill:#ffffff;fill-opacity:0.68627451"
   id="path110"
   d="m 574.443,507.288 c -3.865,0 -6.924,-1.272 -9.176,-3.817 -2.25,-2.545 -3.377,-5.853 -3.377,-9.924 0,-4.4 1.178,-7.842 3.533,-10.326 2.355,-2.484 5.455,-3.727 9.303,-3.727 3.779,0 6.764,1.234 8.955,3.701 2.189,2.467 3.287,5.883 3.287,10.248 0,4.123 -1.119,7.461 -3.352,10.015 -2.233,2.554 -5.292,3.83 -9.173,3.83 z m 0.18,-25.62 c -3.123,0 -5.611,1.053 -7.465,3.157 -1.855,2.104 -2.783,5.029 -2.783,8.772 0,3.469 0.906,6.255 2.719,8.359 1.811,2.105 4.285,3.157 7.426,3.157 3.191,0 5.65,-1.035 7.377,-3.105 1.725,-2.07 2.588,-4.942 2.588,-8.618 0,-3.777 -0.859,-6.676 -2.576,-8.695 -1.718,-2.017 -4.145,-3.027 -7.286,-3.027 z"
   inkscape:connector-curvature="0" />
	<path
   style="fill:#ffffff;fill-opacity:0.68627451"
   id="path112"
   d="m 606.73,482.625 c -0.795,-0.568 -1.727,-0.854 -2.795,-0.854 -2.088,0 -3.84,1.078 -5.254,3.234 -1.416,2.157 -2.123,5.22 -2.123,9.188 v 12.447 h -2.328 v -26.5 h 2.328 v 5.875 h 0.104 c 0.604,-2.019 1.563,-3.588 2.873,-4.71 1.311,-1.121 2.83,-1.683 4.555,-1.683 0.984,0 1.863,0.156 2.641,0.467 v 2.536 z"
   inkscape:connector-curvature="0" />
	<path
   style="fill:#ffffff;fill-opacity:0.68627451"
   id="path114"
   d="M 645.488,506.641 V 490.7 c 0,-3.329 -0.523,-5.667 -1.566,-7.013 -1.043,-1.346 -2.695,-2.019 -4.955,-2.019 -2.088,0 -3.891,0.897 -5.408,2.691 -1.52,1.795 -2.277,4.046 -2.277,6.754 V 506.64 H 628.9 v -16.122 c 0,-5.9 -2.244,-8.851 -6.729,-8.851 -2.158,0 -3.951,0.902 -5.383,2.704 -1.434,1.804 -2.148,4.137 -2.148,7.001 v 15.268 h -2.381 v -26.5 h 2.381 v 4.4 h 0.104 c 1.846,-3.365 4.545,-5.047 8.1,-5.047 1.932,0 3.584,0.557 4.955,1.669 1.373,1.113 2.299,2.575 2.783,4.387 0.828,-1.915 2.014,-3.403 3.559,-4.464 1.543,-1.062 3.221,-1.592 5.033,-1.592 5.797,0 8.695,3.589 8.695,10.766 v 16.381 h -2.381 z"
   inkscape:connector-curvature="0" />
	<path
   style="fill:#ffffff;fill-opacity:0.68627451"
   id="path116"
   d="m 672.342,506.641 v -5.305 h -0.104 c -0.846,1.812 -2.074,3.257 -3.688,4.335 -1.613,1.077 -3.402,1.617 -5.369,1.617 -2.52,0 -4.512,-0.707 -5.979,-2.122 -1.467,-1.414 -2.199,-3.2 -2.199,-5.357 0,-4.623 3.063,-7.418 9.188,-8.385 l 8.15,-1.216 c 0,-5.693 -2.139,-8.54 -6.418,-8.54 -2.916,0 -5.754,1.174 -8.514,3.52 v -2.873 c 0.984,-0.775 2.316,-1.439 3.998,-1.992 1.682,-0.552 3.266,-0.828 4.75,-0.828 2.725,0 4.834,0.846 6.326,2.536 1.492,1.69 2.238,4.149 2.238,7.376 v 17.234 z m -7.297,-13.198 c -2.779,0.396 -4.729,1.039 -5.85,1.928 -1.121,0.889 -1.682,2.334 -1.682,4.334 0,1.57 0.521,2.865 1.566,3.883 1.043,1.018 2.496,1.526 4.359,1.526 2.553,0 4.676,-0.944 6.367,-2.834 1.689,-1.889 2.535,-4.325 2.535,-7.311 v -2.588 z"
   inkscape:connector-curvature="0" />
	<path
   style="fill:#ffffff;fill-opacity:0.68627451"
   id="path118"
   d="m 693.865,506.279 c -1.242,0.586 -2.408,0.879 -3.494,0.879 -3.918,0 -5.875,-2.346 -5.875,-7.039 v -17.805 h -4.762 v -2.174 h 4.762 v -6.883 c 0.379,-0.139 0.777,-0.276 1.191,-0.414 0.414,-0.121 0.811,-0.25 1.189,-0.389 v 7.686 h 6.988 v 2.174 h -6.988 v 17.494 c 0,1.83 0.289,3.154 0.867,3.973 0.578,0.82 1.557,1.229 2.938,1.229 0.982,0 2.045,-0.319 3.184,-0.958 z"
   inkscape:connector-curvature="0" />
	<path
   style="fill:#ffffff;fill-opacity:0.68627451"
   id="path120"
   d="m 700.973,473.465 c -0.518,0 -0.975,-0.189 -1.371,-0.57 -0.398,-0.379 -0.596,-0.861 -0.596,-1.449 0,-0.568 0.203,-1.03 0.607,-1.384 0.406,-0.354 0.859,-0.53 1.359,-0.53 0.535,0 1.004,0.172 1.41,0.518 0.406,0.345 0.609,0.811 0.609,1.396 0,0.553 -0.199,1.027 -0.596,1.424 -0.397,0.396 -0.87,0.595 -1.422,0.595 z m -1.164,33.176 v -26.5 h 2.381 v 26.5 z"
   inkscape:connector-curvature="0" />
	<path
   style="fill:#ffffff;fill-opacity:0.68627451"
   id="path122"
   d="m 722.004,507.288 c -3.865,0 -6.924,-1.272 -9.176,-3.817 -2.25,-2.545 -3.377,-5.853 -3.377,-9.924 0,-4.4 1.178,-7.842 3.533,-10.326 2.355,-2.484 5.455,-3.727 9.303,-3.727 3.779,0 6.764,1.234 8.955,3.701 2.189,2.467 3.287,5.883 3.287,10.248 0,4.123 -1.119,7.461 -3.352,10.015 -2.234,2.554 -5.292,3.83 -9.173,3.83 z m 0.18,-25.62 c -3.123,0 -5.611,1.053 -7.465,3.157 -1.855,2.104 -2.783,5.029 -2.783,8.772 0,3.469 0.906,6.255 2.719,8.359 1.811,2.105 4.285,3.157 7.426,3.157 3.191,0 5.65,-1.035 7.377,-3.105 1.725,-2.07 2.588,-4.942 2.588,-8.618 0,-3.777 -0.859,-6.676 -2.576,-8.695 -1.718,-2.017 -4.146,-3.027 -7.286,-3.027 z"
   inkscape:connector-curvature="0" />
	<path
   style="fill:#ffffff;fill-opacity:0.68627451"
   id="path124"
   d="m 759.803,506.641 v -15.424 c 0,-6.365 -2.295,-9.549 -6.883,-9.549 -2.555,0 -4.65,0.936 -6.289,2.808 -1.639,1.872 -2.459,4.188 -2.459,6.948 v 15.217 h -2.381 v -26.5 h 2.381 v 4.814 h 0.104 c 1.932,-3.641 4.951,-5.461 9.059,-5.461 2.863,0 5.055,0.953 6.572,2.859 1.517,1.906 2.277,4.629 2.277,8.165 v 16.122 h -2.381 z"
   inkscape:connector-curvature="0" />
	<path
   style="fill:#ffffff;fill-opacity:0.68627451"
   id="path126"
   d="m 769.475,505.477 v -2.873 c 0.896,0.777 1.982,1.39 3.26,1.838 1.277,0.449 2.381,0.673 3.313,0.673 4.158,0 6.236,-1.699 6.236,-5.099 0,-1.172 -0.457,-2.174 -1.371,-3.002 -0.914,-0.828 -2.398,-1.682 -4.451,-2.562 -2.535,-1.104 -4.318,-2.247 -5.344,-3.429 -1.027,-1.182 -1.539,-2.618 -1.539,-4.309 0,-2.156 0.822,-3.899 2.471,-5.229 1.646,-1.328 3.678,-1.992 6.094,-1.992 2.277,0 4.227,0.466 5.85,1.397 v 2.691 c -1.967,-1.276 -4.004,-1.915 -6.107,-1.915 -1.744,0 -3.148,0.453 -4.219,1.358 -1.07,0.906 -1.604,2.083 -1.604,3.532 0,1.26 0.336,2.282 1.008,3.067 0.674,0.785 2.156,1.687 4.451,2.704 2.76,1.242 4.658,2.394 5.693,3.455 1.035,1.061 1.553,2.471 1.553,4.23 0,2.105 -0.789,3.844 -2.367,5.215 -1.578,1.372 -3.758,2.058 -6.535,2.058 -2.554,0.003 -4.685,-0.601 -6.392,-1.808 z"
   inkscape:connector-curvature="0" />
	<path
   style="fill:#ffffff;fill-opacity:0.68627451"
   id="path128"
   d="m 802.59,506.279 c -1.242,0.586 -2.406,0.879 -3.494,0.879 -3.916,0 -5.873,-2.346 -5.873,-7.039 v -17.805 h -4.762 v -2.174 h 4.762 v -6.883 c 0.379,-0.139 0.775,-0.276 1.189,-0.414 0.414,-0.121 0.811,-0.25 1.191,-0.389 v 7.686 h 6.986 v 2.174 h -6.986 v 17.494 c 0,1.83 0.287,3.154 0.865,3.973 0.578,0.82 1.557,1.229 2.938,1.229 0.984,0 2.045,-0.319 3.184,-0.958 z"
   inkscape:connector-curvature="0" />
	<path
   style="fill:#ffffff;fill-opacity:0.68627451"
   id="path130"
   d="m 809.104,493.494 c 0,3.641 0.84,6.488 2.523,8.541 1.682,2.053 3.988,3.079 6.922,3.079 2.967,0 5.865,-1.095 8.695,-3.286 v 2.535 c -2.742,1.95 -5.807,2.925 -9.188,2.925 -3.416,0 -6.176,-1.225 -8.281,-3.675 -2.105,-2.449 -3.156,-5.908 -3.156,-10.377 0,-3.865 1.1,-7.121 3.299,-9.77 2.199,-2.649 5.061,-3.973 8.58,-3.973 3.295,0 5.822,1.156 7.582,3.468 1.76,2.312 2.639,5.47 2.639,9.472 v 1.061 z m 17.13,-2.174 c -0.104,-3.053 -0.836,-5.426 -2.199,-7.116 -1.363,-1.69 -3.244,-2.536 -5.641,-2.536 -2.484,0 -4.543,0.832 -6.174,2.497 -1.629,1.665 -2.635,4.05 -3.014,7.155 z"
   inkscape:connector-curvature="0" />
	<path
   style="fill:#ffffff;fill-opacity:0.68627451"
   id="path132"
   d="m 853.141,505.477 c -1.967,1.207 -4.313,1.812 -7.039,1.812 -3.605,0 -6.514,-1.237 -8.721,-3.714 -2.209,-2.475 -3.313,-5.715 -3.313,-9.717 0,-4.21 1.242,-7.656 3.727,-10.339 2.485,-2.683 5.676,-4.024 9.574,-4.024 2.02,0 3.977,0.414 5.875,1.242 v 2.691 c -1.898,-1.173 -3.977,-1.76 -6.236,-1.76 -3.105,0 -5.625,1.117 -7.557,3.352 -1.934,2.234 -2.898,5.129 -2.898,8.682 0,3.434 0.883,6.194 2.652,8.281 1.768,2.088 4.102,3.132 7,3.132 2.656,0 4.969,-0.707 6.936,-2.122 z"
   inkscape:connector-curvature="0" />
	<path
   style="fill:#ffffff;fill-opacity:0.68627451"
   id="path134"
   d="m 878.209,506.641 v -15.889 c 0,-3.141 -0.57,-5.439 -1.709,-6.897 -1.139,-1.458 -2.916,-2.187 -5.33,-2.187 -2.277,0 -4.279,0.889 -6.004,2.666 -1.727,1.777 -2.588,4.321 -2.588,7.634 v 14.673 h -2.381 v -39.232 h 2.381 v 17.494 h 0.104 c 2.086,-3.605 5.123,-5.408 9.109,-5.408 2.863,0 5.047,0.924 6.547,2.77 1.502,1.846 2.252,4.494 2.252,7.944 v 16.433 h -2.381 z"
   inkscape:connector-curvature="0" />
	<path
   style="fill:#ffffff;fill-opacity:0.68627451"
   id="path136"
   d="m 907.262,506.641 v -15.424 c 0,-6.365 -2.295,-9.549 -6.883,-9.549 -2.555,0 -4.65,0.936 -6.289,2.808 -1.639,1.872 -2.459,4.188 -2.459,6.948 v 15.217 h -2.381 v -26.5 h 2.381 v 4.814 h 0.104 c 1.932,-3.641 4.951,-5.461 9.059,-5.461 2.863,0 5.055,0.953 6.572,2.859 1.517,1.906 2.277,4.629 2.277,8.165 v 16.122 h -2.381 z"
   inkscape:connector-curvature="0" />
	<path
   style="fill:#ffffff;fill-opacity:0.68627451"
   id="path138"
   d="m 919.469,473.465 c -0.518,0 -0.977,-0.189 -1.373,-0.57 -0.396,-0.379 -0.594,-0.861 -0.594,-1.449 0,-0.568 0.201,-1.03 0.607,-1.384 0.404,-0.354 0.857,-0.53 1.359,-0.53 0.533,0 1.004,0.172 1.41,0.518 0.404,0.345 0.607,0.811 0.607,1.396 0,0.553 -0.199,1.027 -0.596,1.424 -0.397,0.397 -0.869,0.595 -1.42,0.595 z m -1.166,33.176 v -26.5 h 2.381 v 26.5 z"
   inkscape:connector-curvature="0" />
	<path
   style="fill:#ffffff;fill-opacity:0.68627451"
   id="path140"
   d="m 945.027,506.641 -12.68,-13.094 h -0.104 v 13.094 h -2.381 v -39.232 h 2.381 v 25.284 h 0.104 l 12.033,-12.552 h 3.08 l -12.578,12.836 13.588,13.664 z"
   inkscape:connector-curvature="0" />
</g>
</svg>